<?xml version="1.0" encoding="UTF-8"?>
<svg version="1.1" xmlns="http://www.w3.org/2000/svg" width="207" height="407">
<path d="M0 0 C68.31 0 136.62 0 207 0 C207 134.31 207 268.62 207 407 C138.69 407 70.38 407 0 407 C0 272.69 0 138.38 0 0 Z " fill="#FBFBFB" transform="translate(0,0)"/>
<path d="M0 0 C68.31 0 136.62 0 207 0 C207 1.32 207 2.64 207 4 C177.96 4 148.92 4 119 4 C119 7.63 119 11.26 119 15 C118.8580269 18.20011938 118.69396046 21.38688494 118.484375 24.58203125 C118.4285878 25.46202286 118.3728006 26.34201447 118.31532288 27.24867249 C118.13167674 30.10361757 117.94131504 32.95805927 117.75 35.8125 C117.65312393 37.29305878 117.65312393 37.29305878 117.55429077 38.80352783 C116.59717187 53.32399263 115.21906164 67.74817929 113.54272461 82.20089722 C111.75773439 97.83093496 111.55517238 113.28389814 112 129 C112.63808594 128.4946875 113.27617188 127.989375 113.93359375 127.46875 C114.75988281 126.8190625 115.58617188 126.169375 116.4375 125.5 C117.26121094 124.8503125 118.08492188 124.200625 118.93359375 123.53125 C121 122 121 122 122 122 C121.38172304 132.79999379 120.20058895 143.496433 118.89819336 154.23144531 C118.56310601 156.99500203 118.23329704 159.75915017 117.90429688 162.5234375 C114.67692932 189.49740402 114.67692932 189.49740402 112.9140625 196.52734375 C111.51146147 202.45477414 111.53607699 208.49862264 111.375 214.5625 C111.33632812 215.76197266 111.29765625 216.96144531 111.2578125 218.19726562 C111.16429814 221.13127872 111.08109566 224.0656174 111 227 C114.63 225.35 118.26 223.7 122 222 C121.64308967 231.94426013 120.74327875 241.47044216 118.7578125 251.22265625 C117.41812386 257.90038259 116.49301287 264.64207772 115.50390625 271.37890625 C115.33761719 272.49136719 115.17132813 273.60382813 115 274.75 C114.7834375 276.22726562 114.7834375 276.22726562 114.5625 277.734375 C114.13784953 280.19970691 113.65047341 282.59682871 113.09130859 285.03149414 C111.92280547 290.25215819 110.93752627 295.49942002 109.9765625 300.76171875 C109.69709023 302.28686348 109.69709023 302.28686348 109.41197205 303.84281921 C108.81299896 307.12378696 108.21826763 310.405496 107.625 313.6875 C107.42268768 314.8044928 107.22037537 315.9214856 107.01193237 317.07232666 C104.01504557 333.67851586 101.41291488 350.25028017 99.39501953 367.00292969 C98.73317596 372.02443259 97.87491436 377.01181566 97 382 C96.01 382 95.02 382 94 382 C93.57645964 323.41313101 93.57645964 323.41313101 96 300 C92.37 301.65 88.74 303.3 85 305 C84.73879338 284.30663098 85.48355923 264.29143714 88.46044922 243.79370117 C89.41535384 237.07955504 90.26514017 230.35185923 91.125 223.625 C91.30850296 222.19530084 91.4920963 220.76561329 91.67578125 219.3359375 C92.11822393 215.89075735 92.55946277 212.44542438 93 209 C91.41587586 209.7835595 89.83273397 210.56910499 88.25 211.35546875 C87.36828125 211.79270264 86.4865625 212.22993652 85.578125 212.68041992 C83.33784473 213.82707852 81.1669985 215.03466514 79 216.3125 C76 218 76 218 74 218 C74 213.38 74 208.76 74 204 C74.99 204.33 75.98 204.66 77 205 C76.98839844 203.9378125 76.97679688 202.875625 76.96484375 201.78125 C76.95545506 200.35416844 76.94635602 198.92708496 76.9375 197.5 C76.92912109 196.80390625 76.92074219 196.1078125 76.91210938 195.390625 C76.90888672 194.69453125 76.90566406 193.9984375 76.90234375 193.28125 C76.89710693 192.65283203 76.89187012 192.02441406 76.88647461 191.37695312 C77 189 77 189 77.49511719 185.56445312 C78.26597995 179.62584053 78.15631626 173.66653567 78.17578125 167.6875 C78.19602422 164.99965824 78.21735306 162.3118442 78.23999023 159.62402344 C78.24825521 158.57668596 78.24825521 158.57668596 78.25668716 157.50819016 C78.45137602 133.22870688 79.18091448 109.19265014 81.4831543 85.00585938 C81.66253545 83.11333697 81.84133148 81.22075901 82.01953125 79.328125 C82.10653793 78.40451172 82.19354462 77.48089844 82.28318787 76.52929688 C83.44673677 63.70199549 83.87565531 50.82904201 84.31616211 37.95996094 C85.23136833 12.305895 85.23136833 12.305895 88 4 C58.96 4 29.92 4 0 4 C0 2.68 0 1.36 0 0 Z " fill="#45B042" transform="translate(0,0)"/>
<path d="M0 0 C9.49290827 2.18689471 15.54364912 5.92580607 21 14.125 C32.60924992 35.04681896 38.33325092 59.66319848 41.875 83.125 C41.97863861 83.80784058 42.08227722 84.49068115 42.1890564 85.19421387 C44.36181551 99.75716859 45.1561229 114.24889365 45.1328125 128.97265625 C45.13348948 130.35257484 45.13446274 131.73249331 45.13571167 133.1124115 C45.13716968 135.97705238 45.13509583 138.84166168 45.13037109 141.70629883 C45.12466954 145.33544202 45.12796776 148.96451127 45.13394356 152.59365177 C45.13759637 155.43448928 45.13638927 158.27530991 45.13381577 161.11614799 C45.13284643 163.09102808 45.13582488 165.06590889 45.13894653 167.04078674 C45.10876925 178.83398413 44.34816098 190.5037379 42.75 202.1875 C42.62431641 203.12311768 42.49863281 204.05873535 42.36914062 205.02270508 C41.91851023 208.34927766 41.45898786 211.67457047 41 215 C40.80637649 216.42314117 40.61303121 217.84632022 40.41992188 219.26953125 C39.89459763 223.135829 39.36095056 227.00091193 38.8223877 230.86538696 C38.61029262 232.39307782 38.40019439 233.92104747 38.19226074 235.4493103 C37.10049858 243.44936377 35.83142869 251.28600495 33.75 259.10131836 C32.66780776 263.28389272 31.82708051 267.50861386 30.95947266 271.73999023 C23.87439559 306.16819851 13.35191591 339.79684684 -5 370 C-10.29715604 360.21225078 -6.83668755 350.72020079 -4.07104492 340.60107422 C-1.60427472 331.54107321 0.55955041 322.43745423 2.5 313.25 C2.65029663 312.54167023 2.80059326 311.83334045 2.95544434 311.10354614 C5.68584718 298.16410136 7.85943132 285.19281007 9.58691406 272.07910156 C9.97575429 269.18072515 10.40059491 266.29013664 10.8359375 263.3984375 C15.16533177 233.60789395 15.21780674 203.34187245 15.36200333 173.29790497 C15.37478747 171.16053191 15.39475938 169.02334279 15.4168396 166.88604736 C15.70545805 137.001211 11.31536841 109.16717366 2.19921875 80.75390625 C1.01077109 77.03371666 -0.14065567 73.30703771 -1.25 69.5625 C-1.72179687 67.98662109 -1.72179687 67.98662109 -2.203125 66.37890625 C-4.00501162 58.73855365 -4.1942094 51.07249236 -4.1875 43.25 C-4.18669434 42.25718018 -4.18588867 41.26436035 -4.18505859 40.24145508 C-4.12941764 33.35670509 -3.7744542 26.54126163 -3.125 19.6875 C-3.04660889 18.85959961 -2.96821777 18.03169922 -2.88745117 17.17871094 C-2.27582682 11.37326404 -1.22918048 5.7047548 0 0 Z " fill="#565251" transform="translate(122,7)"/>
<path d="M0 0 C0.33 0 0.66 0 1 0 C1.06996317 13.58834889 1.12304404 27.17665389 1.15543652 40.76514721 C1.17099474 47.07697669 1.19205 53.38868162 1.22631836 59.70043945 C1.25926683 65.80833955 1.2769267 71.91612095 1.28463173 78.02410316 C1.29011229 80.33732276 1.30081118 82.65053696 1.31719017 84.96370506 C1.39792439 96.85447035 1.07072846 108.33623669 -0.80107975 120.08884335 C-4.0369166 140.49237779 -4.30312624 160.99556134 -4.265625 181.609375 C-4.26697762 184.28102846 -4.26892164 186.95267651 -4.27142334 189.62432861 C-4.27502146 195.17747026 -4.27037302 200.73055802 -4.26074219 206.28369141 C-4.24984413 212.63960757 -4.25341001 218.99539546 -4.264395 225.35130858 C-4.27356243 230.88416546 -4.27470828 236.41698446 -4.26951766 241.94984651 C-4.26645192 245.22148933 -4.26666035 248.49306105 -4.27259064 251.76470184 C-4.29991644 271.05935112 -4.04618829 290.32269385 0.4375 309.1875 C0.64181641 310.10595703 0.84613281 311.02441406 1.05664062 311.97070312 C2.27529575 317.33506354 3.7306764 322.57105505 5.43383789 327.80200195 C6 330 6 330 6 334 C-0.54156895 332.52814699 -5.46537758 328.99803029 -9.05712891 323.33251953 C-16.74004141 309.80306335 -21.30004224 295.04008803 -25 280 C-25.26683594 278.98550781 -25.53367187 277.97101563 -25.80859375 276.92578125 C-32.40335326 249.69249977 -32.21145904 220.66488628 -32.1875 192.8125 C-32.18689575 191.51942932 -32.1862915 190.22635864 -32.18566895 188.894104 C-32.16190911 170.1872902 -32.00233518 151.61673101 -30 133 C-29.92976624 132.34422974 -29.85953247 131.68845947 -29.78717041 131.01281738 C-28.30312203 117.27145069 -26.68936235 103.62558968 -23.67163086 90.12207031 C-22.97878906 86.90140111 -22.46278422 83.70136344 -22.02636719 80.43847656 C-18.55887763 54.5487047 -11.7842976 23.5685952 0 0 Z " fill="#575352" transform="translate(70,57)"/>
<path d="M0 0 C1.66611905 -0.042721 3.33382885 -0.04063832 5 0 C6.91942384 1.91942384 6.23059378 5.46543903 6.28125 8.0859375 C6.30832031 9.1730175 6.30832031 9.1730175 6.3359375 10.28205872 C6.37444724 11.83833141 6.4109118 13.39465576 6.44555664 14.95101929 C6.53585885 18.97154291 6.64309048 22.99160771 6.75 27.01171875 C6.77066528 27.79861588 6.79133057 28.585513 6.81262207 29.39625549 C6.9721707 35.33042647 7.18608619 41.25926255 7.5 47.1875 C7.53544922 47.88987793 7.57089844 48.59225586 7.60742188 49.31591797 C7.77895993 52.36222311 8.05146176 55.3307498 8.52075195 58.34692383 C9.30936106 64.59478667 9.04916734 70.87260357 8.94921875 77.15625 C8.92991251 78.54463362 8.91085958 79.93302078 8.89204407 81.32141113 C8.85118527 84.23306262 8.80603772 87.14460986 8.75805664 90.05615234 C8.71010681 92.99002214 8.66835992 95.9238611 8.63305664 98.85791016 C8.4187275 116.64479761 7.8296859 134.28937769 6 152 C5.34 152 4.68 152 4 152 C4 156.62 4 161.24 4 166 C3.34 166 2.68 166 2 166 C1.95101562 164.85660156 1.90203125 163.71320313 1.8515625 162.53515625 C1.77654811 161.04424527 1.70099972 159.55336108 1.625 158.0625 C1.5940625 157.30775391 1.563125 156.55300781 1.53125 155.77539062 C1.4273685 153.84492605 1.22104386 151.92057919 1 150 C0.34 149.67 -0.32 149.34 -1 149 C-1.06058594 149.84304687 -1.12117188 150.68609375 -1.18359375 151.5546875 C-1.26738281 152.65039062 -1.35117188 153.74609375 -1.4375 154.875 C-1.51871094 155.96554688 -1.59992188 157.05609375 -1.68359375 158.1796875 C-2 161 -2 161 -3 163 C-3.99 163 -4.98 163 -6 163 C-5.59491198 151.65753534 -4.71439474 140.4106094 -3.5 129.125 C-3.36940186 127.9071582 -3.23880371 126.68931641 -3.10424805 125.43457031 C-2.1264304 116.58405109 -2.1264304 116.58405109 -1.48377991 113.61529732 C-1.02019046 111.10914891 -0.87930551 108.86257747 -0.88647461 106.31881714 C-0.8865451 105.40755066 -0.8866156 104.49628418 -0.88668823 103.55740356 C-0.89185455 102.57021332 -0.89702087 101.58302307 -0.90234375 100.56591797 C-0.90380402 99.51662109 -0.90526428 98.46732422 -0.9067688 97.38623047 C-0.91057005 95.11144413 -0.91668161 92.83666074 -0.92483521 90.56188583 C-0.93759672 86.96492674 -0.94411367 83.3680045 -0.94897461 79.77102661 C-0.9604024 72.1390012 -0.97965245 64.50700616 -1 56.875 C-1.02357063 48.02520084 -1.04396663 39.17541896 -1.05593872 30.32559586 C-1.06243744 26.77635645 -1.07494417 23.22716985 -1.08764648 19.677948 C-1.09127776 17.5103968 -1.09462964 15.3428451 -1.09765625 13.17529297 C-1.10282257 12.18405426 -1.10798889 11.19281555 -1.11331177 10.17153931 C-1.11338226 9.26591248 -1.11345276 8.36028564 -1.11352539 7.42721558 C-1.115746 6.64004591 -1.11796661 5.85287624 -1.12025452 5.04185295 C-1 3 -1 3 0 0 Z " fill="#EAEBE9" transform="translate(71,53)"/>
<path d="M0 0 C68.31 0 136.62 0 207 0 C207 1.32 207 2.64 207 4 C138.69 4 70.38 4 0 4 C0 2.68 0 1.36 0 0 Z " fill="#000000" transform="translate(0,0)"/>
<path d="M0 0 C9.24477186 10.89746851 7.06945495 28.73875857 6 42 C5.34 42 4.68 42 4 42 C4 46.62 4 51.24 4 56 C3.34 56 2.68 56 2 56 C1.95101562 54.85660156 1.90203125 53.71320313 1.8515625 52.53515625 C1.77654811 51.04424527 1.70099972 49.55336108 1.625 48.0625 C1.5940625 47.30775391 1.563125 46.55300781 1.53125 45.77539062 C1.4273685 43.84492605 1.22104386 41.92057919 1 40 C0.34 39.67 -0.32 39.34 -1 39 C-1.06058594 39.84304687 -1.12117188 40.68609375 -1.18359375 41.5546875 C-1.26738281 42.65039062 -1.35117188 43.74609375 -1.4375 44.875 C-1.51871094 45.96554688 -1.59992188 47.05609375 -1.68359375 48.1796875 C-2 51 -2 51 -3 53 C-3.99 53 -4.98 53 -6 53 C-5.59588373 41.68474431 -4.73776605 30.44955096 -3.5625 19.1875 C-3.44028076 17.97803711 -3.31806152 16.76857422 -3.19213867 15.52246094 C-3.06814697 14.37422852 -2.94415527 13.22599609 -2.81640625 12.04296875 C-2.70756104 11.02227295 -2.59871582 10.00157715 -2.48657227 8.94995117 C-1.96935716 5.81422106 -1.08001098 2.98440903 0 0 Z " fill="#D6DDD5" transform="translate(71,163)"/>
<path d="M0 0 C4.97963801 4.81900452 4.97963801 4.81900452 5.0625 9.625 C5.041875 10.73875 5.02125 11.8525 5 13 C5.66 13 6.32 13 7 13 C5.53258124 17.90406787 3.47869322 22.20535074 1.0625 26.6875 C0.71509766 27.35072266 0.36769531 28.01394531 0.00976562 28.69726562 C-1.67982866 31.85690239 -3.22784418 34.67973165 -6 37 C-9.1746686 27.10250377 -7.37278647 18.6492437 -4.5625 8.875 C-4.3452124 8.11582275 -4.1279248 7.35664551 -3.90405273 6.57446289 C-3.33443412 4.69534179 -2.67423574 2.84417126 -2 1 C-1.34 0.67 -0.68 0.34 0 0 Z " fill="#726F6E" transform="translate(122,340)"/>
<path d="M0 0 C29.04 0 58.08 0 88 0 C88 0.33 88 0.66 88 1 C59.29 1 30.58 1 1 1 C1.66 1.99 2.32 2.98 3 4 C3.01171875 5.91235352 3.01171875 5.91235352 2.6875 8.06640625 C2.57792969 8.86449707 2.46835938 9.66258789 2.35546875 10.48486328 C2.23816406 11.3148584 2.12085937 12.14485352 2 13 C1.8248757 14.61238508 1.65826682 16.22571681 1.5 17.83984375 C1.4179834 18.66718018 1.3359668 19.4945166 1.25146484 20.34692383 C0.22806194 30.88996096 -0.5090735 41.41924194 -1 52 C-1.33 52 -1.66 52 -2 52 C-3.33038891 34.70494423 -1.33038891 17.29505577 0 0 Z " fill="#DDE2DC" transform="translate(119,4)"/>
</svg>
